<svg viewBox="0 0 450 450" xmlns="http://www.w3.org/2000/svg"><path d="M 10 6.75 A 0.75 0.75 0 0 1 10.75 7.5 V 11 A 0.75 0.75 0 1 1 9.25 11 V 7.5 A 0.75 0.75 0 0 1 10 6.75 Z" fill="rgba(37, 26, 0, 1)"/><path d="M 11 13.5 A 1 1 0 1 1 9 13.5 A 1 1 0 0 1 11 13.5 Z" fill="rgba(37, 26, 0, 1)"/><path d="M 10 3.5 C 8.955 3.5 8.216 4.202 7.848 4.947 A 449.26 449.26 0 0 1 5.843 8.794 L 5.815 8.846 A 403.426 403.426 0 0 0 3.807 12.702 C 3.435 13.454 3.329 14.452 3.9 15.316 C 4.47 16.179 5.442 16.5 6.364 16.5 H 13.636 C 14.558 16.5 15.531 16.18 16.1 15.316 C 16.67 14.452 16.565 13.454 16.193 12.702 C 15.983 12.278 15.08 10.555 14.189 8.855 L 14.157 8.794 A 429.497 429.497 0 0 1 12.152 4.947 C 11.784 4.202 11.045 3.5 10 3.5 Z M 9.192 5.612 C 9.596 4.796 10.404 4.796 10.808 5.612 C 11.01 6.021 11.92 7.757 12.83 9.492 A 418.904 418.904 0 0 1 14.848 13.367 C 15.252 14.184 14.848 15 13.636 15 H 6.364 C 5.152 15 4.747 14.184 5.152 13.367 C 5.354 12.959 6.265 11.22 7.175 9.484 A 421.932 421.932 0 0 0 9.192 5.612 Z" fill="rgba(37, 26, 0, 1)" fill-rule="evenodd"/></svg>
