<svg viewBox="0 0 20 20" xmlns="http://www.w3.org/2000/svg"><path d="M 10 6 A 0.75 0.75 0 0 1 10.75 6.75 V 10.25 A 0.75 0.75 0 0 1 9.25 10.25 V 6.75 A 0.75 0.75 0 0 1 10 6 Z" fill="currentColor"/><path d="M 11 13 A 1 1 0 1 1 9 13 A 1 1 0 0 1 11 13 Z" fill="currentColor"/><path d="M 11.237 3.177 A 1.75 1.75 0 0 0 8.763 3.177 L 3.177 8.762 A 1.75 1.75 0 0 0 3.177 11.237 L 8.763 16.823 A 1.75 1.75 0 0 0 11.237 16.823 L 16.823 11.237 A 1.75 1.75 0 0 0 16.823 8.762 L 11.237 3.177 Z M 9.823 4.237 A 0.25 0.25 0 0 1 10.177 4.237 L 15.763 9.823 A 0.25 0.25 0 0 1 15.763 10.177 L 10.177 15.762 A 0.25 0.25 0 0 1 9.823 15.762 L 4.237 10.177 A 0.25 0.25 0 0 1 4.237 9.823 L 9.823 4.237 Z" fill="currentColor" fill-rule="evenodd"/></svg>
