<svg viewBox="0 0 20 20" xmlns="http://www.w3.org/2000/svg"><path d="M 4.09 4.22 L 4.15 4.15 A 0.5 0.5 0 0 1 4.78 4.09 L 4.85 4.15 L 10 9.29 L 15.15 4.15 A 0.5 0.5 0 0 1 15.78 4.09 L 15.85 4.15 C 16.03 4.32 16.05 4.59 15.91 4.78 L 15.85 4.85 L 10.71 10 L 15.85 15.15 C 16.03 15.32 16.05 15.59 15.91 15.78 L 15.85 15.85 A 0.5 0.5 0 0 1 15.22 15.91 L 15.15 15.85 L 10 10.71 L 4.85 15.85 A 0.5 0.5 0 0 1 4.22 15.91 L 4.15 15.85 A 0.5 0.5 0 0 1 4.09 15.22 L 4.15 15.15 L 9.29 10 L 4.15 4.85 A 0.5 0.5 0 0 1 4.09 4.22 L 4.15 4.15 Z" fill="currentColor"/></svg>
